<svg width="800" height="800" viewBox="0 0 800 800" fill="none" xmlns="http://www.w3.org/2000/svg">
<path d="M239.903 706.207H205.354L206.469 693.205C206.469 693.205 190.332 683.62 192.241 670.663C194.752 653.608 196.928 636.907 196.928 636.907C196.928 636.907 188.666 598.93 189.199 588.804C189.207 577.525 201.832 578.922 203.21 585.717C206.563 602.265 213.189 631.285 213.189 631.285C213.189 631.285 206.044 586.811 206.044 580.763C206.044 574.82 217.218 568.421 219.418 581.878C221.618 595.334 228.048 632.028 228.048 632.028C228.048 632.028 234.476 594.233 236.083 589.679C238.312 583.364 247.039 584.084 246.856 592.279C246.485 608.968 241.051 635.372 241.051 635.372C241.051 635.372 246.268 614.036 247.849 605.727C249.43 597.418 259.076 601.309 258.547 606.396C258.019 611.484 254.641 629.882 253.406 639.829C251.852 652.345 255.037 662.445 253.536 669.177C250.458 682.984 240.274 694.319 240.274 694.319L239.903 706.207Z" stroke="#498FE1" stroke-width="3.5552" stroke-linecap="round" stroke-linejoin="round"/>
<path d="M193.726 680.321C193.726 680.321 186.669 665.091 184.44 661.004C182.211 656.917 176.572 642.83 175.152 639.458C172.18 632.4 182.211 629.056 186.669 633.514C191.126 637.972 197.813 650.603 197.813 650.603C197.813 650.603 205.479 653.529 207.843 654.318C212.301 655.803 215.273 662.118 215.273 662.118" stroke="#498FE1" stroke-width="3.5552" stroke-linecap="round" stroke-linejoin="round"/>
<path d="M273.785 714.445H173.003C167.096 714.445 162.307 719.234 162.307 725.141V731.558C162.307 737.466 167.096 742.254 173.003 742.254H273.785C279.693 742.254 284.481 737.466 284.481 731.558V725.141C284.481 719.234 279.693 714.445 273.785 714.445Z" stroke="#498FE1" stroke-opacity="0.955882" stroke-width="3.91899" stroke-linecap="round" stroke-linejoin="bevel"/>
<path d="M195.86 721.414V724.543C195.048 724.18 194.256 723.906 193.483 723.721C192.711 723.536 191.982 723.444 191.295 723.444C190.384 723.444 189.711 723.569 189.275 723.82C188.84 724.071 188.622 724.46 188.622 724.988C188.622 725.384 188.767 725.695 189.058 725.919C189.355 726.137 189.889 726.325 190.662 726.483L192.285 726.81C193.929 727.14 195.097 727.642 195.79 728.315C196.483 728.988 196.83 729.945 196.83 731.186C196.83 732.817 196.345 734.031 195.374 734.83C194.411 735.622 192.936 736.018 190.949 736.018C190.011 736.018 189.071 735.929 188.127 735.751C187.183 735.573 186.239 735.308 185.295 734.959V731.741C186.239 732.242 187.15 732.622 188.028 732.879C188.912 733.13 189.764 733.256 190.582 733.256C191.414 733.256 192.051 733.117 192.493 732.84C192.936 732.563 193.157 732.167 193.157 731.652C193.157 731.19 193.005 730.833 192.701 730.582C192.404 730.332 191.807 730.107 190.909 729.909L189.434 729.582C187.955 729.265 186.873 728.76 186.186 728.067C185.507 727.374 185.167 726.441 185.167 725.266C185.167 723.794 185.642 722.662 186.592 721.87C187.543 721.077 188.909 720.681 190.691 720.681C191.503 720.681 192.338 720.744 193.196 720.87C194.054 720.988 194.942 721.17 195.86 721.414V721.414Z" fill="#498FE1"/>
<path d="M200.186 720.949H206.513C208.394 720.949 209.837 721.368 210.84 722.206C211.85 723.038 212.355 724.226 212.355 725.771C212.355 727.322 211.85 728.516 210.84 729.355C209.837 730.186 208.394 730.602 206.513 730.602H203.998V735.731H200.186V720.949ZM203.998 723.711V727.84H206.107C206.846 727.84 207.417 727.662 207.82 727.305C208.223 726.942 208.424 726.431 208.424 725.771C208.424 725.11 208.223 724.602 207.82 724.246C207.417 723.889 206.846 723.711 206.107 723.711H203.998Z" fill="#498FE1"/>
<path d="M221.79 723.444C220.629 723.444 219.728 723.873 219.087 724.731C218.447 725.589 218.127 726.797 218.127 728.355C218.127 729.906 218.447 731.11 219.087 731.969C219.728 732.827 220.629 733.256 221.79 733.256C222.959 733.256 223.863 732.827 224.503 731.969C225.143 731.11 225.464 729.906 225.464 728.355C225.464 726.797 225.143 725.589 224.503 724.731C223.863 723.873 222.959 723.444 221.79 723.444ZM221.79 720.681C224.167 720.681 226.028 721.361 227.374 722.721C228.721 724.081 229.394 725.959 229.394 728.355C229.394 730.744 228.721 732.619 227.374 733.978C226.028 735.338 224.167 736.018 221.79 736.018C219.421 736.018 217.559 735.338 216.206 733.978C214.86 732.619 214.186 730.744 214.186 728.355C214.186 725.959 214.86 724.081 216.206 722.721C217.559 721.361 219.421 720.681 221.79 720.681Z" fill="#498FE1"/>
<path d="M243.988 734.919C243.289 735.282 242.559 735.556 241.8 735.741C241.041 735.926 240.249 736.018 239.424 736.018C236.962 736.018 235.011 735.332 233.573 733.959C232.134 732.579 231.414 730.711 231.414 728.355C231.414 725.992 232.134 724.124 233.573 722.751C235.011 721.371 236.962 720.681 239.424 720.681C240.249 720.681 241.041 720.774 241.8 720.959C242.559 721.144 243.289 721.417 243.988 721.78V724.84C243.282 724.358 242.586 724.005 241.899 723.78C241.213 723.556 240.49 723.444 239.731 723.444C238.371 723.444 237.302 723.879 236.523 724.751C235.744 725.622 235.355 726.823 235.355 728.355C235.355 729.879 235.744 731.078 236.523 731.949C237.302 732.82 238.371 733.256 239.731 733.256C240.49 733.256 241.213 733.143 241.899 732.919C242.586 732.695 243.282 732.342 243.988 731.86V734.919Z" fill="#498FE1"/>
<path d="M247.157 720.949H250.968V726.345L256.463 720.949H260.889L253.77 727.949L261.622 735.731H256.85L250.968 729.909V735.731H247.157V720.949Z" fill="#498FE1"/>
<path d="M703.462 367.602H668.914L670.028 354.6C670.028 354.6 653.892 345.015 655.8 332.058C658.311 315.004 660.487 298.303 660.487 298.303C660.487 298.303 662.325 263.057 662.858 252.932C663.601 238.815 676.262 238.851 676.262 251.105C676.262 268.193 676.412 272.56 676.15 275.964C675.778 280.793 676.748 292.681 676.748 292.681C676.748 292.681 679.493 248.206 679.493 242.159C679.493 236.215 692.123 231.014 692.867 243.273C693.998 261.94 691.607 293.424 691.607 293.424C691.607 293.424 694.232 255.628 695.838 251.075C698.068 244.759 706.794 245.48 706.612 253.675C706.241 270.363 704.61 296.767 704.61 296.767C704.61 296.767 706.237 280.556 707.307 270.392C708.049 263.334 717.336 258.504 717.708 272.992C717.914 281.011 718.2 291.278 716.965 301.225C715.411 313.741 718.596 323.841 717.096 330.572C714.017 344.38 703.833 355.714 703.833 355.714L703.462 367.602Z" stroke="#498FE1" stroke-width="3.5552" stroke-linecap="round" stroke-linejoin="round"/>
<path d="M657.286 341.717C657.286 341.717 650.228 326.487 647.999 322.4C645.77 318.313 640.131 304.225 638.711 300.853C635.739 293.795 645.77 290.452 650.228 294.91C654.686 299.367 661.372 311.998 661.372 311.998C661.372 311.998 669.038 314.925 671.402 315.713C675.86 317.199 678.832 323.514 678.832 323.514" stroke="#498FE1" stroke-width="3.55528" stroke-linecap="round" stroke-linejoin="round"/>
<path d="M737.344 375.841H636.562C630.655 375.841 625.866 380.629 625.866 386.537V392.954C625.866 398.861 630.655 403.65 636.562 403.65H737.344C743.252 403.65 748.04 398.861 748.04 392.954V386.537C748.04 380.629 743.252 375.841 737.344 375.841Z" stroke="#498FE1" stroke-opacity="0.955882" stroke-width="3.91899" stroke-linecap="round" stroke-linejoin="bevel"/>
<path d="M651.587 382.354H657.914C659.795 382.354 661.237 382.773 662.241 383.612C663.25 384.443 663.755 385.632 663.755 387.176C663.755 388.727 663.25 389.922 662.241 390.76C661.237 391.592 659.795 392.008 657.914 392.008H655.399V397.136H651.587V382.354ZM655.399 385.117V389.245H657.508C658.247 389.245 658.818 389.067 659.221 388.711C659.623 388.348 659.825 387.836 659.825 387.176C659.825 386.516 659.623 386.008 659.221 385.651C658.818 385.295 658.247 385.117 657.508 385.117H655.399Z" fill="#498FE1"/>
<path d="M673.548 394.443H667.587L666.646 397.136H662.815L668.29 382.354H672.835L678.31 397.136H674.478L673.548 394.443ZM668.538 391.701H672.587L670.567 385.82L668.538 391.701Z" fill="#498FE1"/>
<path d="M680.26 382.354H686.587C688.468 382.354 689.911 382.773 690.914 383.612C691.924 384.443 692.429 385.632 692.429 387.176C692.429 388.727 691.924 389.922 690.914 390.76C689.911 391.592 688.468 392.008 686.587 392.008H684.072V397.136H680.26V382.354ZM684.072 385.117V389.245H686.181C686.92 389.245 687.491 389.067 687.894 388.711C688.297 388.348 688.498 387.836 688.498 387.176C688.498 386.516 688.297 386.008 687.894 385.651C687.491 385.295 686.92 385.117 686.181 385.117H684.072Z" fill="#498FE1"/>
<path d="M695.112 382.354H705.399V385.235H698.924V387.988H705.013V390.869H698.924V394.255H705.617V397.136H695.112V382.354Z" fill="#498FE1"/>
<path d="M714.389 388.909C715.188 388.909 715.759 388.76 716.102 388.463C716.452 388.166 716.627 387.678 716.627 386.998C716.627 386.325 716.452 385.843 716.102 385.552C715.759 385.262 715.188 385.117 714.389 385.117H712.785V388.909H714.389ZM712.785 391.542V397.136H708.973V382.354H714.795C716.742 382.354 718.168 382.681 719.072 383.334C719.983 383.988 720.438 385.021 720.438 386.434C720.438 387.41 720.201 388.212 719.726 388.839C719.257 389.467 718.547 389.929 717.597 390.226C718.118 390.344 718.584 390.615 718.993 391.038C719.409 391.453 719.828 392.087 720.25 392.938L722.32 397.136H718.26L716.458 393.463C716.095 392.724 715.726 392.219 715.349 391.948C714.98 391.678 714.485 391.542 713.864 391.542H712.785Z" fill="#498FE1"/>
<path d="M358.523 108.562V74.0138L371.525 75.1285C371.525 75.1285 386.858 55.9156 399.834 57.6851C405.743 58.4908 408.588 62.6415 409.587 63.3079C411.199 64.3819 419.373 63.5956 427.708 64.9369C438.023 66.5968 440.045 72.7926 438.452 78.6348C436.84 84.5436 431.939 83.6727 431.939 83.6727C431.939 83.6727 437.512 87.3877 436.397 93.3311C435.437 98.4561 429.71 98.9032 429.71 98.9032C429.71 98.9032 434.253 102.881 432.682 107.448C430.277 114.44 422.652 112.649 422.652 112.649C422.652 112.649 430.343 121.928 420.685 125.271C411.026 128.615 404.838 123.783 397.365 122.924C377.169 120.602 370.41 108.934 370.41 108.934L358.523 108.562Z" stroke="#498FE1" stroke-width="3.5552" stroke-linecap="round" stroke-linejoin="round"/>
<path d="M430.578 83.3348C430.578 83.3348 407.136 74.7163 405.624 82.926C403.921 92.1728 408.618 95.3975 412.266 95.6778C417.075 96.0481 430.305 99.2585 430.305 99.2585C430.305 99.2585 402.895 90.6028 401.658 99.6706C400.371 109.106 408.367 108.673 411.963 109.975C415.559 111.278 425.068 113.18 425.068 113.18C425.068 113.18 409.485 109.12 405.941 108.211C398.361 106.266 390.091 120.48 410.314 122.892L410.932 124.541" stroke="#498FE1" stroke-width="3.5552" stroke-linecap="round" stroke-linejoin="round"/>
<path d="M391.465 76.7371C391.465 76.7371 397.267 79.6165 397.766 84.0089C400.213 105.515 418.085 100.181 415.801 85.1712C412.407 62.8719 402.52 59.028 402.52 59.028" stroke="#498FE1" stroke-width="3.5552" stroke-linecap="round" stroke-linejoin="round"/>
<path d="M449.933 151.016H349.151C343.244 151.016 338.455 155.805 338.455 161.712V168.13C338.455 174.037 343.244 178.826 349.151 178.826H449.933C455.84 178.826 460.629 174.037 460.629 168.13V161.712C460.629 155.805 455.84 151.016 449.933 151.016Z" stroke="#498FE1" stroke-opacity="0.955882" stroke-width="3.91899" stroke-linecap="round" stroke-linejoin="bevel"/>
<path d="M373.864 164.075C374.662 164.075 375.233 163.926 375.576 163.629C375.926 163.332 376.101 162.844 376.101 162.164C376.101 161.491 375.926 161.009 375.576 160.718C375.233 160.428 374.662 160.283 373.864 160.283H372.26V164.075H373.864ZM372.26 166.708V172.302H368.448V157.52H374.27C376.217 157.52 377.642 157.847 378.547 158.5C379.458 159.154 379.913 160.187 379.913 161.599C379.913 162.576 379.675 163.378 379.2 164.005C378.732 164.632 378.022 165.094 377.072 165.391C377.593 165.51 378.058 165.781 378.468 166.203C378.883 166.619 379.303 167.253 379.725 168.104L381.794 172.302H377.735L375.933 168.629C375.57 167.89 375.2 167.385 374.824 167.114C374.454 166.844 373.959 166.708 373.339 166.708H372.26Z" fill="#498FE1"/>
<path d="M390.804 160.015C389.643 160.015 388.742 160.444 388.101 161.302C387.461 162.16 387.141 163.368 387.141 164.926C387.141 166.477 387.461 167.682 388.101 168.54C388.742 169.398 389.643 169.827 390.804 169.827C391.973 169.827 392.877 169.398 393.517 168.54C394.157 167.682 394.478 166.477 394.478 164.926C394.478 163.368 394.157 162.16 393.517 161.302C392.877 160.444 391.973 160.015 390.804 160.015ZM390.804 157.253C393.181 157.253 395.042 157.933 396.388 159.292C397.735 160.652 398.408 162.53 398.408 164.926C398.408 167.316 397.735 169.19 396.388 170.55C395.042 171.91 393.181 172.59 390.804 172.59C388.435 172.59 386.573 171.91 385.22 170.55C383.874 169.19 383.2 167.316 383.2 164.926C383.2 162.53 383.874 160.652 385.22 159.292C386.573 157.933 388.435 157.253 390.804 157.253Z" fill="#498FE1"/>
<path d="M413.002 171.491C412.303 171.854 411.573 172.127 410.814 172.312C410.055 172.497 409.263 172.59 408.438 172.59C405.976 172.59 404.025 171.903 402.586 170.53C401.147 169.151 400.428 167.283 400.428 164.926C400.428 162.563 401.147 160.695 402.586 159.322C404.025 157.943 405.976 157.253 408.438 157.253C409.263 157.253 410.055 157.345 410.814 157.53C411.573 157.715 412.303 157.989 413.002 158.352V161.411C412.296 160.929 411.6 160.576 410.913 160.352C410.227 160.128 409.504 160.015 408.745 160.015C407.385 160.015 406.316 160.451 405.537 161.322C404.758 162.193 404.369 163.395 404.369 164.926C404.369 166.451 404.758 167.649 405.537 168.52C406.316 169.392 407.385 169.827 408.745 169.827C409.504 169.827 410.227 169.715 410.913 169.49C411.6 169.266 412.296 168.913 413.002 168.431V171.491Z" fill="#498FE1"/>
<path d="M416.171 157.52H419.982V162.916L425.477 157.52H429.903L422.784 164.52L430.636 172.302H425.864L419.982 166.481V172.302H416.171V157.52Z" fill="#498FE1"/>
<path d="M513.603 671.904V637.355L526.605 638.469C526.605 638.469 543.768 624.597 556.724 626.505C573.778 629.017 582.901 628.929 582.901 628.929C582.901 628.929 617.318 626.895 627.456 626.705C639.813 626.474 641.646 640.281 629.471 641.665C613.334 643.498 582.723 646.183 582.723 646.183C588.791 648.583 621.801 656.923 629.471 658.794C642.722 662.026 638.789 675.45 629.11 674.213C614.411 672.334 586.729 662.244 586.729 662.244C586.729 662.244 591.271 666.223 589.7 670.789C587.295 677.781 579.671 675.99 579.671 675.99C579.671 675.99 583.864 683.353 574.206 686.696C564.547 690.039 559.753 688.043 552.445 686.265C538.7 682.922 525.49 672.275 525.49 672.275L513.603 671.904Z" stroke="#498FE1" stroke-width="3.5552" stroke-linecap="round" stroke-linejoin="round"/>
<path d="M586.729 662.244C586.729 662.244 562.697 649.985 559.354 658.901C556.011 667.817 562.697 667.817 566.041 669.674C569.384 671.532 579.671 675.99 579.671 675.99C579.671 675.99 563.308 668.042 559.663 667.736C554.261 667.282 552.323 673.837 554.552 676.437C556.781 679.038 564.21 682.01 564.21 682.01L566.036 684.558" stroke="#498FE1" stroke-width="3.5552" stroke-linecap="round" stroke-linejoin="round"/>
<path d="M546.544 640.079C546.544 640.079 552.119 642.99 552.846 647.35C555.27 661.893 572.096 663.33 569.812 648.319C566.419 626.02 555.755 626.99 555.755 626.99" stroke="#498FE1" stroke-width="3.5552" stroke-linecap="round" stroke-linejoin="round"/>
<path d="M631.696 714.445H530.914C525.007 714.445 520.218 719.234 520.218 725.141V731.558C520.218 737.466 525.007 742.254 530.914 742.254H631.696C637.603 742.254 642.392 737.466 642.392 731.558V725.141C642.392 719.234 637.603 714.445 631.696 714.445Z" stroke="#498FE1" stroke-opacity="0.955882" stroke-width="3.91899" stroke-linecap="round" stroke-linejoin="bevel"/>
<path d="M539.587 721.414V724.543C538.775 724.18 537.983 723.906 537.211 723.721C536.439 723.536 535.709 723.444 535.023 723.444C534.112 723.444 533.439 723.569 533.003 723.82C532.567 724.071 532.349 724.46 532.349 724.988C532.349 725.384 532.495 725.694 532.785 725.919C533.082 726.137 533.617 726.325 534.389 726.483L536.013 726.81C537.656 727.14 538.825 727.642 539.518 728.315C540.211 728.988 540.557 729.945 540.557 731.186C540.557 732.816 540.072 734.031 539.102 734.83C538.138 735.622 536.663 736.018 534.676 736.018C533.739 736.018 532.798 735.929 531.854 735.751C530.91 735.572 529.967 735.308 529.023 734.958V731.741C529.967 732.242 530.878 732.622 531.755 732.879C532.64 733.13 533.491 733.256 534.31 733.256C535.142 733.256 535.778 733.117 536.221 732.84C536.663 732.562 536.884 732.166 536.884 731.652C536.884 731.19 536.732 730.833 536.429 730.582C536.132 730.331 535.534 730.107 534.637 729.909L533.161 729.582C531.683 729.265 530.6 728.76 529.914 728.067C529.234 727.374 528.894 726.44 528.894 725.265C528.894 723.793 529.369 722.661 530.32 721.869C531.27 721.077 532.637 720.681 534.419 720.681C535.231 720.681 536.066 720.744 536.924 720.869C537.782 720.988 538.67 721.17 539.587 721.414V721.414Z" fill="#498FE1"/>
<path d="M554.914 734.919C554.214 735.282 553.485 735.556 552.726 735.741C551.967 735.925 551.175 736.018 550.349 736.018C547.887 736.018 545.937 735.331 544.498 733.958C543.059 732.579 542.34 730.711 542.34 728.355C542.34 725.991 543.059 724.123 544.498 722.75C545.937 721.371 547.887 720.681 550.349 720.681C551.175 720.681 551.967 720.774 552.726 720.959C553.485 721.143 554.214 721.417 554.914 721.78V724.84C554.208 724.358 553.511 724.005 552.825 723.78C552.138 723.556 551.415 723.444 550.656 723.444C549.297 723.444 548.227 723.879 547.448 724.751C546.67 725.622 546.28 726.823 546.28 728.355C546.28 729.879 546.67 731.077 547.448 731.949C548.227 732.82 549.297 733.256 550.656 733.256C551.415 733.256 552.138 733.143 552.825 732.919C553.511 732.694 554.208 732.341 554.914 731.859V734.919Z" fill="#498FE1"/>
<path d="M557.359 720.948H561.171V735.73H557.359V720.948Z" fill="#498FE1"/>
<path d="M574.488 721.414V724.543C573.676 724.18 572.884 723.906 572.112 723.721C571.34 723.536 570.61 723.444 569.924 723.444C569.013 723.444 568.34 723.569 567.904 723.82C567.468 724.071 567.251 724.46 567.251 724.988C567.251 725.384 567.396 725.694 567.686 725.919C567.983 726.137 568.518 726.325 569.29 726.483L570.914 726.81C572.558 727.14 573.726 727.642 574.419 728.315C575.112 728.988 575.459 729.945 575.459 731.186C575.459 732.816 574.973 734.031 574.003 734.83C573.039 735.622 571.564 736.018 569.577 736.018C568.64 736.018 567.699 735.929 566.756 735.751C565.812 735.572 564.868 735.308 563.924 734.958V731.741C564.868 732.242 565.779 732.622 566.657 732.879C567.541 733.13 568.393 733.256 569.211 733.256C570.043 733.256 570.68 733.117 571.122 732.84C571.564 732.562 571.785 732.166 571.785 731.652C571.785 731.19 571.633 730.833 571.33 730.582C571.033 730.331 570.435 730.107 569.538 729.909L568.062 729.582C566.584 729.265 565.501 728.76 564.815 728.067C564.135 727.374 563.795 726.44 563.795 725.265C563.795 723.793 564.27 722.661 565.221 721.869C566.171 721.077 567.538 720.681 569.32 720.681C570.132 720.681 570.967 720.744 571.825 720.869C572.683 720.988 573.571 721.17 574.488 721.414V721.414Z" fill="#498FE1"/>
<path d="M587.468 721.414V724.543C586.657 724.18 585.864 723.906 585.092 723.721C584.32 723.536 583.591 723.444 582.904 723.444C581.993 723.444 581.32 723.569 580.884 723.82C580.449 724.071 580.231 724.46 580.231 724.988C580.231 725.384 580.376 725.694 580.666 725.919C580.964 726.137 581.498 726.325 582.27 726.483L583.894 726.81C585.538 727.14 586.706 727.642 587.399 728.315C588.092 728.988 588.439 729.945 588.439 731.186C588.439 732.816 587.954 734.031 586.983 734.83C586.02 735.622 584.544 736.018 582.558 736.018C581.62 736.018 580.68 735.929 579.736 735.751C578.792 735.572 577.848 735.308 576.904 734.958V731.741C577.848 732.242 578.759 732.622 579.637 732.879C580.521 733.13 581.373 733.256 582.191 733.256C583.023 733.256 583.66 733.117 584.102 732.84C584.544 732.562 584.765 732.166 584.765 731.652C584.765 731.19 584.614 730.833 584.31 730.582C584.013 730.331 583.416 730.107 582.518 729.909L581.043 729.582C579.564 729.265 578.482 728.76 577.795 728.067C577.115 727.374 576.775 726.44 576.775 725.265C576.775 723.793 577.251 722.661 578.201 721.869C579.152 721.077 580.518 720.681 582.3 720.681C583.112 720.681 583.947 720.744 584.805 720.869C585.663 720.988 586.551 721.17 587.468 721.414V721.414Z" fill="#498FE1"/>
<path d="M597.825 723.444C596.663 723.444 595.762 723.873 595.122 724.731C594.482 725.589 594.162 726.797 594.162 728.355C594.162 729.906 594.482 731.11 595.122 731.968C595.762 732.826 596.663 733.256 597.825 733.256C598.993 733.256 599.898 732.826 600.538 731.968C601.178 731.11 601.498 729.906 601.498 728.355C601.498 726.797 601.178 725.589 600.538 724.731C599.898 723.873 598.993 723.444 597.825 723.444ZM597.825 720.681C600.201 720.681 602.063 721.361 603.409 722.721C604.756 724.08 605.429 725.958 605.429 728.355C605.429 730.744 604.756 732.618 603.409 733.978C602.063 735.338 600.201 736.018 597.825 736.018C595.455 736.018 593.594 735.338 592.241 733.978C590.894 732.618 590.221 730.744 590.221 728.355C590.221 725.958 590.894 724.08 592.241 722.721C593.594 721.361 595.455 720.681 597.825 720.681Z" fill="#498FE1"/>
<path d="M612.993 727.503C613.792 727.503 614.363 727.354 614.706 727.057C615.056 726.76 615.231 726.272 615.231 725.592C615.231 724.919 615.056 724.437 614.706 724.146C614.363 723.856 613.792 723.711 612.993 723.711H611.389V727.503H612.993ZM611.389 730.136V735.73H607.577V720.948H613.399C615.346 720.948 616.772 721.275 617.676 721.929C618.587 722.582 619.043 723.615 619.043 725.028C619.043 726.004 618.805 726.806 618.33 727.434C617.861 728.061 617.152 728.523 616.201 728.82C616.723 728.938 617.188 729.209 617.597 729.632C618.013 730.047 618.432 730.681 618.855 731.533L620.924 735.73H616.865L615.063 732.057C614.7 731.318 614.33 730.813 613.954 730.542C613.584 730.272 613.089 730.136 612.469 730.136H611.389Z" fill="#498FE1"/>
<path d="M632.746 721.414V724.543C631.934 724.18 631.142 723.906 630.369 723.721C629.597 723.536 628.868 723.444 628.181 723.444C627.271 723.444 626.597 723.569 626.162 723.82C625.726 724.071 625.508 724.46 625.508 724.988C625.508 725.384 625.653 725.694 625.944 725.919C626.241 726.137 626.775 726.325 627.548 726.483L629.172 726.81C630.815 727.14 631.983 727.642 632.676 728.315C633.37 728.988 633.716 729.945 633.716 731.186C633.716 732.816 633.231 734.031 632.261 734.83C631.297 735.622 629.822 736.018 627.835 736.018C626.898 736.018 625.957 735.929 625.013 735.751C624.069 735.572 623.125 735.308 622.181 734.958V731.741C623.125 732.242 624.036 732.622 624.914 732.879C625.799 733.13 626.65 733.256 627.469 733.256C628.3 733.256 628.937 733.117 629.379 732.84C629.822 732.562 630.043 732.166 630.043 731.652C630.043 731.19 629.891 730.833 629.587 730.582C629.29 730.331 628.693 730.107 627.795 729.909L626.32 729.582C624.841 729.265 623.759 728.76 623.072 728.067C622.393 727.374 622.053 726.44 622.053 725.265C622.053 723.793 622.528 722.661 623.478 721.869C624.429 721.077 625.795 720.681 627.577 720.681C628.389 720.681 629.224 720.744 630.082 720.869C630.94 720.988 631.828 721.17 632.746 721.414V721.414Z" fill="#498FE1"/>
<path d="M116.377 264.943C115.71 264.931 115.044 265.075 114.425 265.41C102.895 270.356 91.5568 275.796 80.3376 281.412C78.317 282.055 78.2722 284.38 77.8023 286.098C75.02 299.607 72.9835 313.241 71.0511 326.892C70.493 330.373 71.4519 333.833 71.9282 337.255C73.4703 347.392 75.2585 357.485 76.931 367.601H106.416C106.116 364.982 105.898 362.355 105.81 359.715C105.496 352.687 104.938 345.283 107.824 338.673C109.114 335.76 110.782 332.695 113.772 331.261C120.314 327.96 125.822 322.998 130.909 317.799C135.512 313.297 139.352 312.082 142.102 308.416C144.45 302.915 139.783 298.895 133.892 300.81C127.03 303.303 120.474 307.345 113.008 307.644C106.288 307.748 101.166 301.239 101.056 294.855C110.639 290.56 121.701 287.991 131.934 291.568C138.066 293.63 145.408 295.487 149.281 295.808C152.096 296.041 155.139 292.778 154.779 289.889C158.157 289.001 160.361 283.576 153.757 280.278C145.944 276.377 131.871 270.698 118.341 265.41C117.714 265.123 117.045 264.955 116.377 264.943V264.943Z" stroke="#498FE1" stroke-width="3.5552" stroke-linecap="round" stroke-linejoin="round"/>
<path d="M90.521 281.095C90.521 281.095 90.521 281.095 119.229 274.054C119.802 273.914 120.997 274.052 121.54 274.253C131.73 278.025 145.601 283.089 152.643 286.904C156.368 288.922 154.738 292.899 152.545 294.655C150.67 296.156 148.173 295.773 148.279 295.702" stroke="#498FE1" stroke-width="3.5552" stroke-linecap="round" stroke-linejoin="round"/>
<path d="M163.438 375.841H62.6554C56.7482 375.841 51.9595 380.629 51.9595 386.537V392.954C51.9595 398.861 56.7482 403.65 62.6554 403.65H163.438C169.345 403.65 174.134 398.861 174.134 392.954V386.537C174.134 380.629 169.345 375.841 163.438 375.841Z" stroke="#498FE1" stroke-opacity="0.955882" stroke-width="3.91899" stroke-linecap="round" stroke-linejoin="bevel"/>
<path d="M72.8634 382.354H76.6753V394.255H83.3684V397.136H72.8634V382.354Z" fill="#498FE1"/>
<path d="M85.7743 382.354H89.5861V397.136H85.7743V382.354Z" fill="#498FE1"/>
<path d="M92.6158 382.354H105.042V384.661L97.1109 394.255H105.269V397.136H92.3881V394.83L100.319 385.236H92.6158V382.354Z" fill="#498FE1"/>
<path d="M117.002 394.443H111.042L110.101 397.136H106.269L111.745 382.354H116.289L121.764 397.136H117.933L117.002 394.443ZM111.992 391.701H116.042L114.022 385.82L111.992 391.701Z" fill="#498FE1"/>
<path d="M129.131 388.909C129.929 388.909 130.5 388.76 130.844 388.463C131.193 388.166 131.368 387.678 131.368 386.998C131.368 386.325 131.193 385.843 130.844 385.552C130.5 385.262 129.929 385.117 129.131 385.117H127.527V388.909H129.131ZM127.527 391.543V397.136H123.715V382.354H129.537C131.484 382.354 132.91 382.681 133.814 383.335C134.725 383.988 135.18 385.021 135.18 386.434C135.18 387.411 134.943 388.213 134.467 388.84C133.999 389.467 133.289 389.929 132.339 390.226C132.86 390.344 133.325 390.615 133.735 391.038C134.15 391.453 134.57 392.087 134.992 392.939L137.061 397.136H133.002L131.2 393.463C130.837 392.724 130.467 392.219 130.091 391.948C129.721 391.678 129.226 391.543 128.606 391.543H127.527Z" fill="#498FE1"/>
<path d="M143.131 385.236V394.255H144.497C146.055 394.255 147.243 393.869 148.061 393.097C148.886 392.325 149.299 391.203 149.299 389.731C149.299 388.265 148.89 387.15 148.071 386.384C147.253 385.618 146.061 385.236 144.497 385.236H143.131ZM139.319 382.354H143.339C145.583 382.354 147.253 382.516 148.348 382.84C149.451 383.156 150.395 383.698 151.18 384.463C151.873 385.13 152.388 385.899 152.725 386.77C153.061 387.641 153.23 388.628 153.23 389.731C153.23 390.846 153.061 391.843 152.725 392.721C152.388 393.592 151.873 394.361 151.18 395.028C150.388 395.793 149.438 396.338 148.329 396.661C147.22 396.978 145.556 397.136 143.339 397.136H139.319V382.354Z" fill="#498FE1"/>
<path fill-rule="evenodd" clip-rule="evenodd" d="M412.338 225.189C412.06 225.196 411.787 225.268 411.542 225.399C411.296 225.53 411.085 225.717 410.925 225.944C410.765 226.172 410.661 226.434 410.621 226.709C410.58 226.985 410.605 227.265 410.693 227.529L500.262 508.328L489.52 511.754L515.182 549.246L515.078 543.322L514.395 503.82L503.65 507.246L414.08 226.449C413.967 226.078 413.736 225.754 413.421 225.526C413.106 225.299 412.726 225.18 412.338 225.189Z" fill="#498FE1"/>
<path fill-rule="evenodd" clip-rule="evenodd" d="M375.459 258.619L372.678 262.633L350.408 294.754L360.734 298.115L269.396 578.672C269.139 579.428 269.417 580.264 270.076 580.715C271.064 581.39 272.423 580.916 272.777 579.773L364.113 299.215L374.437 302.576L375.459 258.619Z" fill="#498FE1"/>
<path fill-rule="evenodd" clip-rule="evenodd" d="M507.857 337.775L507.883 349.051L241.633 349.619C241.396 349.614 241.161 349.657 240.94 349.744C240.72 349.831 240.52 349.962 240.351 350.128C240.181 350.294 240.047 350.492 239.956 350.71C239.864 350.929 239.818 351.164 239.818 351.4C239.819 351.637 239.866 351.872 239.959 352.09C240.051 352.308 240.186 352.506 240.356 352.671C240.526 352.836 240.727 352.966 240.948 353.052C241.168 353.138 241.404 353.18 241.641 353.174L507.889 352.607L507.914 363.885L551.402 350.738L545.723 349.047L507.857 337.775Z" fill="#498FE1"/>
<path fill-rule="evenodd" clip-rule="evenodd" d="M591.896 375.992C591.496 375.979 591.103 376.102 590.781 376.34L351.393 548.295L344.814 539.137L317.086 575.127L322.689 573.199L360.047 560.344L353.467 551.184L592.854 379.229C593.16 379.015 593.392 378.711 593.516 378.358C593.639 378.006 593.649 377.623 593.543 377.265C593.437 376.907 593.221 376.591 592.926 376.362C592.63 376.134 592.27 376.004 591.896 375.992V375.992Z" fill="#498FE1"/>
<path fill-rule="evenodd" clip-rule="evenodd" d="M227.852 397.979L231.439 402.693L255.365 434.131L261.998 425.01L500.369 598.373C500.558 598.513 500.772 598.615 501 598.671C501.228 598.728 501.465 598.739 501.698 598.704C501.93 598.668 502.153 598.587 502.354 598.465C502.554 598.343 502.729 598.182 502.867 597.992C503.005 597.802 503.105 597.586 503.159 597.358C503.213 597.129 503.222 596.892 503.184 596.66C503.146 596.428 503.063 596.206 502.939 596.007C502.815 595.807 502.652 595.634 502.461 595.498L264.09 422.137L270.723 413.016L227.852 397.979Z" fill="#498FE1"/>
<path fill-rule="evenodd" clip-rule="evenodd" d="M427.979 645.121V656.398H330.309C330.072 656.393 329.836 656.435 329.616 656.522C329.395 656.609 329.194 656.739 329.025 656.904C328.855 657.07 328.721 657.268 328.629 657.486C328.537 657.704 328.49 657.939 328.49 658.176C328.49 658.413 328.537 658.647 328.629 658.866C328.721 659.084 328.855 659.282 329.025 659.447C329.194 659.613 329.395 659.743 329.616 659.83C329.836 659.917 330.072 659.959 330.309 659.953H427.979V671.23L471.494 658.176L465.818 656.473L427.979 645.121Z" fill="#498FE1"/>
<path fill-rule="evenodd" clip-rule="evenodd" d="M654.613 420.613L651.24 425.486L628.75 457.967L639.475 461.451L609.295 554.34C609.218 554.563 609.187 554.799 609.203 555.034C609.218 555.27 609.281 555.5 609.386 555.711C609.491 555.922 609.638 556.109 609.816 556.263C609.995 556.417 610.202 556.534 610.427 556.607C610.651 556.68 610.888 556.708 611.123 556.688C611.358 556.669 611.586 556.603 611.796 556.494C612.005 556.386 612.191 556.236 612.342 556.055C612.493 555.874 612.606 555.665 612.676 555.439L642.857 462.551L653.582 466.035L654.613 420.613Z" fill="#498FE1"/>
<path fill-rule="evenodd" clip-rule="evenodd" d="M146.291 420.615C146.013 420.623 145.741 420.697 145.496 420.829C145.251 420.962 145.041 421.15 144.883 421.379C144.724 421.607 144.621 421.87 144.583 422.145C144.544 422.421 144.571 422.701 144.66 422.965L174.842 515.852L164.115 519.338L189.979 556.691L189.844 550.768L188.947 511.27L178.223 514.754L148.041 421.865C147.926 421.494 147.692 421.171 147.376 420.946C147.06 420.72 146.679 420.604 146.291 420.615V420.615Z" fill="#498FE1"/>
<path fill-rule="evenodd" clip-rule="evenodd" d="M485.408 173.871L488.998 178.586L512.939 210.012L519.568 200.889L598.584 258.297C598.773 258.434 598.987 258.533 599.214 258.587C599.441 258.642 599.677 258.651 599.907 258.614C600.138 258.578 600.359 258.496 600.558 258.374C600.757 258.252 600.93 258.092 601.067 257.903C601.205 257.714 601.303 257.5 601.358 257.273C601.412 257.046 601.421 256.811 601.385 256.58C601.348 256.35 601.267 256.128 601.145 255.929C601.023 255.73 600.863 255.557 600.674 255.42L521.658 198.012L528.287 188.889L485.408 173.871Z" fill="#498FE1"/>
<path fill-rule="evenodd" clip-rule="evenodd" d="M312.937 173.139C312.537 173.127 312.143 173.252 311.822 173.492L232.807 230.9L226.178 221.777L198.646 257.918L204.238 255.959L241.525 242.9L234.896 233.777L313.912 176.369C314.217 176.154 314.447 175.848 314.569 175.495C314.691 175.142 314.698 174.76 314.59 174.402C314.482 174.045 314.265 173.73 313.968 173.503C313.671 173.277 313.311 173.149 312.937 173.139V173.139Z" fill="#498FE1"/>
</svg>
